<?xml version="1.0" encoding="UTF-8" standalone="no"?>
<svg
   xmlns:dc="http://purl.org/dc/elements/1.1/"
   xmlns:cc="http://creativecommons.org/ns#"
   xmlns:rdf="http://www.w3.org/1999/02/22-rdf-syntax-ns#"
   xmlns:svg="http://www.w3.org/2000/svg"
   xmlns="http://www.w3.org/2000/svg"
   id="svg8"
   version="1.1"
   viewBox="0 0 135.46666 135.46667"
   height="512"
   width="512">
  <defs
     id="defs2">
    <clipPath
       id="clipPath18"
       clipPathUnits="userSpaceOnUse">
      <path
         id="path16"
         d="M 0,864.311 H 1728.171 V 0 H 0 Z" />
    </clipPath>
  </defs>
  <metadata
     id="metadata5">
    <rdf:RDF>
      <cc:Work
         rdf:about="">
        <dc:format>image/svg+xml</dc:format>
        <dc:type
           rdf:resource="http://purl.org/dc/dcmitype/StillImage" />
        <dc:title></dc:title>
      </cc:Work>
    </rdf:RDF>
  </metadata>
  <g
     id="g1186"
     transform="matrix(0.93398444,0,0,0.93398444,-21.075247,-48.400962)">
    <circle
       style="fill:#ffffff;fill-opacity:1;stroke:none;stroke-width:3.481;stroke-miterlimit:4;stroke-dasharray:none;stroke-opacity:1"
       id="circle1600"
       cx="95.085716"
       cy="124.34286"
       r="72.520836" />
    <g
       id="g1557"
       transform="matrix(1.2911475,0,0,1.2911475,-19.96914,-376.69169)"
       style="fill:#000000;fill-opacity:1;stroke:#000000;stroke-width:1.05833;stroke-miterlimit:10;stroke-dasharray:none;stroke-opacity:1">
      <path
         d="M 89.140455,439.04419 V 416.01102"
         style="fill:#000000;fill-opacity:1;stroke:#000000;stroke-width:1.05833;stroke-linecap:butt;stroke-linejoin:miter;stroke-miterlimit:10;stroke-dasharray:none;stroke-opacity:1"
         id="path1555" />
    </g>
    <path
       id="path1529"
       style="fill:#231f20;fill-opacity:1;fill-rule:nonzero;stroke:none;stroke-width:0.354918"
       d="m 92.70722,113.1297 c 0,1.25997 1.02145,2.28177 2.28142,2.28177 1.26031,0 2.28141,-1.0218 2.28141,-2.28177 0,-1.25997 -1.0211,-2.28141 -2.28141,-2.28141 -1.25997,0 -2.28142,1.02146 -2.28142,2.28141" />
    <path
       id="path1531"
       style="fill:#000000;fill-opacity:1;fill-rule:nonzero;stroke:none;stroke-width:0.354918"
       d="m 95.06512,109.7287 c 0,0 17.78353,-19.33381 0,-35.11703 0,0 0,4.67357 -3.95663,7.02348 -3.95662,2.34992 -8.29336,17.22134 3.95663,28.09355" />
    <path
       id="path1533"
       style="fill:#bb0000;fill-opacity:1;fill-rule:nonzero;stroke:none;stroke-width:0.354918"
       d="m 91.95146,112.47408 c 0,0 -7.85185,-25.0675 -30.41223,-17.55851 0,0 4.04712,2.3368 4.10392,6.93831 0.0572,4.6015 10.76786,15.7928 26.30831,10.6202" />
    <path
       id="path1535"
       style="fill:#bb0000;fill-opacity:1;fill-rule:nonzero;stroke:none;stroke-width:0.354918"
       d="m 98.29544,112.50564 c 0,0 25.63539,5.73406 30.41223,-17.55853 0,0 -4.04712,2.33679 -8.06054,0.0852 -4.01378,-2.25161 -19.06124,1.42855 -22.35169,17.47333" />
    <path
       id="path1537"
       style="fill:#000000;fill-opacity:1;fill-rule:nonzero;stroke:none;stroke-width:0.354918"
       d="m 97.83916,115.61393 c 0,0 6.82757,21.79802 26.44567,15.2686 0,0 -3.51937,-2.03227 -3.5687,-6.03325 -0.0497,-4.00171 -9.36346,-13.7332 -22.87697,-9.23534" />
    <path
       id="path1539"
       style="fill:#000000;fill-opacity:1;fill-rule:nonzero;stroke:none;stroke-width:0.354918"
       d="m 92.36026,115.68952 c 0,0 -22.29172,-4.98626 -26.44567,15.26858 0,0 3.51937,-2.03227 7.00927,-0.0741 3.49027,1.95772 16.57469,-1.24222 19.4364,-15.19441" />
    <path
       id="path1541"
       style="fill:#000000;fill-opacity:1;stroke:#000000;stroke-width:1.36646;stroke-linecap:butt;stroke-linejoin:miter;stroke-miterlimit:10;stroke-dasharray:none;stroke-opacity:1"
       d="m 94.98864,134.96396 v -17.92868 -3.22442" />
    <path
       id="path1543"
       style="fill:#000000;fill-opacity:1;fill-rule:nonzero;stroke:none;stroke-width:0.354918"
       d="m 96.34875,115.48536 1.36005,-2.35558 -1.36005,-2.3556 h -2.72009 l -1.36004,2.3556 1.36004,2.35558 z" />
    <path
       id="path1545"
       style="fill:#000000;fill-opacity:1;fill-rule:nonzero;stroke:none;stroke-width:0.354918"
       d="m 97.34438,114.48974 v -2.7201 l -2.3556,-1.36004 -2.35558,1.36004 v 2.7201 l 2.35558,1.36005 z" />
    <path
       id="path1547"
       d="m 91.7677,124.9713 c -0.27646,0.59677 -0.84736,1.3832 -1.36646,1.83418 v 8.15875 h 1.36646 z"
       style="color:#000000;font-style:normal;font-variant:normal;font-weight:normal;font-stretch:normal;font-size:medium;line-height:normal;font-family:sans-serif;font-variant-ligatures:normal;font-variant-position:normal;font-variant-caps:normal;font-variant-numeric:normal;font-variant-alternates:normal;font-feature-settings:normal;text-indent:0;text-align:start;text-decoration:none;text-decoration-line:none;text-decoration-style:solid;text-decoration-color:#000000;letter-spacing:normal;word-spacing:normal;text-transform:none;writing-mode:lr-tb;direction:ltr;text-orientation:mixed;dominant-baseline:auto;baseline-shift:baseline;text-anchor:start;white-space:normal;shape-padding:0;clip-rule:nonzero;display:inline;overflow:visible;visibility:visible;isolation:auto;mix-blend-mode:normal;color-interpolation:sRGB;color-interpolation-filters:linearRGB;solid-color:#000000;solid-opacity:1;vector-effect:none;fill:#bb0000;fill-opacity:1;fill-rule:nonzero;stroke:none;stroke-width:1.36646;stroke-linecap:butt;stroke-linejoin:miter;stroke-miterlimit:10;stroke-dasharray:none;stroke-dashoffset:0;stroke-opacity:1;color-rendering:auto;image-rendering:auto;shape-rendering:auto;text-rendering:auto;enable-background:accumulate" />
    <path
       d="m 91.08552,160.43405 v 18.59896"
       style="fill:#bb0000;fill-opacity:1;stroke:#bb0000;stroke-width:1.36646;stroke-linecap:butt;stroke-linejoin:miter;stroke-miterlimit:10;stroke-dasharray:none;stroke-opacity:1"
       id="path1551" />
    <circle
       style="vector-effect:none;fill:#000000;fill-opacity:1;stroke:#000000;stroke-width:0.556981;stroke-linecap:butt;stroke-linejoin:miter;stroke-miterlimit:4;stroke-dasharray:none;stroke-dashoffset:228;stroke-opacity:0"
       id="circle1553"
       cx="91.085533"
       cy="179.53691"
       r="1.3362592" />
    <g
       aria-label="CYBERSECURITY"
       id="text1561"
       style="font-style:normal;font-variant:normal;font-weight:bold;font-stretch:normal;font-size:11.964px;line-height:1.25;font-family:'Roboto Mono';-inkscape-font-specification:'Roboto Mono Bold';letter-spacing:0px;word-spacing:0px;fill:#bb0000;fill-opacity:1;stroke:#bb0000;stroke-width:0.299099;stroke-opacity:1">
      <path
         d="m 55.913111,144.02085 h -1.641545 q -0.02337,0.38556 -0.128519,0.66012 -0.105153,0.27457 -0.286248,0.44982 -0.181096,0.17525 -0.438135,0.25704 -0.257039,0.0818 -0.578338,0.0818 -0.239514,0 -0.438135,-0.0526 -0.192779,-0.0584 -0.350507,-0.17526 -0.146045,-0.10515 -0.262881,-0.26288 -0.110994,-0.15773 -0.19278,-0.36219 -0.116836,-0.29793 -0.175253,-0.69517 -0.05258,-0.40309 -0.05258,-0.91132 v -1.15668 q 0,-0.37387 0.03505,-0.69517 0.03505,-0.32714 0.110994,-0.59587 0.09931,-0.34466 0.262881,-0.6017 0.169412,-0.26288 0.408926,-0.40308 0.140203,-0.0818 0.303773,-0.12268 0.169412,-0.0409 0.362192,-0.0409 0.362191,0 0.61923,0.0993 0.262881,0.0935 0.438135,0.2804 0.169412,0.19278 0.257039,0.47903 0.09347,0.28625 0.116836,0.66596 h 1.635703 q -0.05842,-0.66596 -0.280406,-1.19756 -0.221989,-0.53161 -0.607547,-0.89964 -0.385559,-0.36803 -0.934688,-0.56666 -0.543287,-0.19862 -1.244302,-0.19862 -0.473186,0 -0.887953,0.12268 -0.408926,0.11684 -0.753592,0.33883 -0.385559,0.26288 -0.689332,0.64259 -0.303774,0.37972 -0.490711,0.86459 -0.16357,0.39724 -0.245356,0.86459 -0.08179,0.4615 -0.08179,0.97558 v 1.14499 q 0,0.54913 0.08763,1.03984 0.09347,0.49071 0.262881,0.89963 0.175254,0.40893 0.426451,0.74775 0.257039,0.33883 0.58418,0.57834 0.35635,0.25704 0.800326,0.39724 0.449818,0.13437 0.97558,0.13437 0.665965,0 1.215094,-0.19278 0.549129,-0.19863 0.946371,-0.56082 0.397242,-0.36219 0.630914,-0.87627 0.239514,-0.51407 0.280406,-1.15667 z"
         style="font-style:normal;font-variant:normal;font-weight:bold;font-stretch:normal;font-family:'Roboto Mono';-inkscape-font-specification:'Roboto Mono Bold';fill:#bb0000;fill-opacity:1;stroke:#bb0000;stroke-width:0.299099;stroke-opacity:1"
         id="path859" />
      <path
         d="M 60.089996,142.0989 58.4134,138.17905 h -1.799273 l 2.63465,5.49129 0.0058,3.01437 h 1.635703 l 0.0058,-2.94427 2.675543,-5.56139 h -1.805115 z"
         style="font-style:normal;font-variant:normal;font-weight:bold;font-stretch:normal;font-family:'Roboto Mono';-inkscape-font-specification:'Roboto Mono Bold';fill:#bb0000;fill-opacity:1;stroke:#bb0000;stroke-width:0.299099;stroke-opacity:1"
         id="path861" />
      <path
         d="m 64.354508,146.68471 h 3.101994 q 0.701015,0 1.261828,-0.15773 0.560812,-0.15773 0.952213,-0.47319 0.3914,-0.31545 0.601705,-0.7828 0.210304,-0.46734 0.210304,-1.08073 0,-0.3213 -0.08763,-0.61923 -0.08179,-0.30377 -0.25704,-0.56081 -0.169412,-0.23952 -0.420609,-0.42061 -0.245355,-0.1811 -0.665965,-0.29793 v -0.006 q 0.216147,-0.0818 0.391401,-0.19862 0.181095,-0.11683 0.321298,-0.25704 0.25704,-0.25703 0.385559,-0.59586 0.134361,-0.34466 0.140203,-0.73022 0,-0.59587 -0.221988,-1.034 -0.216147,-0.43814 -0.619231,-0.72438 -0.403084,-0.28625 -0.97558,-0.42646 -0.566654,-0.1402 -1.261828,-0.1402 h -2.856638 z m 1.647386,-3.75044 h 1.530551 q 0.344666,0.006 0.595863,0.0935 0.251198,0.0876 0.408926,0.2512 0.157729,0.15773 0.22783,0.38556 0.07594,0.22783 0.07594,0.51408 0,0.27456 -0.09931,0.49655 -0.09347,0.22199 -0.280406,0.37972 -0.169412,0.1402 -0.426451,0.22198 -0.251198,0.0818 -0.572496,0.0818 h -1.46045 z m 0,-1.18588 v -2.23157 h 1.215094 q 0.397242,0.006 0.689332,0.0876 0.297932,0.0818 0.473186,0.26288 0.134361,0.12852 0.198621,0.3213 0.0701,0.19278 0.0701,0.44982 0,0.24535 -0.08178,0.43813 -0.07594,0.19278 -0.221988,0.32714 -0.175254,0.16942 -0.461502,0.25704 -0.286248,0.0818 -0.660123,0.0876 z"
         style="font-style:normal;font-variant:normal;font-weight:bold;font-stretch:normal;font-family:'Roboto Mono';-inkscape-font-specification:'Roboto Mono Bold';fill:#bb0000;fill-opacity:1;stroke:#bb0000;stroke-width:0.299099;stroke-opacity:1"
         id="path863" />
      <path
         d="m 76.780009,142.95764 v -1.29688 h -3.493395 v -2.14394 h 4.065891 v -1.33777 h -5.713278 v 8.50566 h 5.730803 v -1.32609 h -4.083416 v -2.40098 z"
         style="font-style:normal;font-variant:normal;font-weight:bold;font-stretch:normal;font-family:'Roboto Mono';-inkscape-font-specification:'Roboto Mono Bold';fill:#bb0000;fill-opacity:1;stroke:#bb0000;stroke-width:0.299099;stroke-opacity:1"
         id="path865" />
      <path
         d="m 81.611175,143.50677 1.600653,3.17794 h 1.758381 v -0.076 l -1.828483,-3.51092 q 0.350508,-0.15772 0.630914,-0.37387 0.286248,-0.21615 0.490711,-0.50824 0.198621,-0.28624 0.303774,-0.64844 0.110994,-0.36803 0.110994,-0.82369 0,-0.63091 -0.221989,-1.10994 -0.216146,-0.47903 -0.61923,-0.80033 -0.408926,-0.3213 -0.981422,-0.48487 -0.572496,-0.16941 -1.279353,-0.16941 h -2.850797 v 8.50566 h 1.641545 v -3.17794 z m -1.244302,-1.33193 v -2.66386 h 1.209252 q 0.338824,0 0.601705,0.0818 0.262881,0.0818 0.443976,0.23367 0.204463,0.16941 0.303774,0.43229 0.105152,0.25704 0.105152,0.59586 0,0.28041 -0.08178,0.50824 -0.07594,0.22783 -0.22783,0.3914 -0.181096,0.20446 -0.473186,0.31546 -0.286248,0.10515 -0.665965,0.10515 z"
         style="font-style:normal;font-variant:normal;font-weight:bold;font-stretch:normal;font-family:'Roboto Mono';-inkscape-font-specification:'Roboto Mono Bold';fill:#bb0000;fill-opacity:1;stroke:#bb0000;stroke-width:0.299099;stroke-opacity:1"
         id="path867" />
      <path
         d="m 90.321295,144.46482 q 0,0.22783 -0.09347,0.42061 -0.09347,0.18694 -0.268723,0.3213 -0.175254,0.13436 -0.432293,0.21031 -0.251197,0.0759 -0.578338,0.0759 -0.368033,0 -0.677648,-0.0818 -0.303774,-0.0818 -0.51992,-0.25704 -0.221988,-0.17526 -0.344666,-0.44982 -0.122678,-0.27457 -0.134361,-0.66012 h -1.612336 q 0,0.66012 0.251197,1.15083 0.257039,0.49071 0.695174,0.8529 0.461502,0.36803 1.080732,0.56081 0.625072,0.18694 1.261828,0.18694 0.64844,0 1.197569,-0.15188 0.549128,-0.15773 0.946371,-0.46151 0.397242,-0.29793 0.61923,-0.73022 0.22783,-0.43814 0.22783,-0.99895 0,-0.64844 -0.297931,-1.14499 -0.297932,-0.49655 -0.800327,-0.87043 -0.332982,-0.22783 -0.730224,-0.40308 -0.397242,-0.17526 -0.835377,-0.29793 -0.408926,-0.111 -0.736067,-0.23952 -0.321298,-0.12852 -0.549128,-0.28625 -0.227831,-0.15188 -0.350508,-0.34466 -0.116836,-0.19278 -0.116836,-0.43229 0,-0.22783 0.08763,-0.42061 0.09347,-0.19863 0.268722,-0.34467 0.175254,-0.1402 0.426452,-0.21615 0.257039,-0.0818 0.584179,-0.0818 0.35635,0 0.619231,0.0993 0.268722,0.0935 0.449818,0.26288 0.175254,0.17525 0.262881,0.41477 0.09347,0.23951 0.105152,0.52576 h 1.600653 q 0,-0.5725 -0.221989,-1.05152 -0.221988,-0.47903 -0.61923,-0.82954 -0.397242,-0.34467 -0.952213,-0.53745 -0.549129,-0.19277 -1.215094,-0.19277 -0.642597,0 -1.191726,0.16941 -0.549129,0.16357 -0.952213,0.47318 -0.403084,0.30962 -0.630914,0.74775 -0.22783,0.43814 -0.22783,0.97558 0,0.46735 0.169412,0.86459 0.175254,0.39724 0.514078,0.72438 0.338824,0.32714 0.870428,0.60171 0.537445,0.27456 1.244302,0.46734 0.45566,0.12268 0.759434,0.26872 0.309615,0.14021 0.502394,0.30962 0.186938,0.17525 0.262881,0.37387 0.08179,0.19862 0.08179,0.42645 z"
         style="font-style:normal;font-variant:normal;font-weight:bold;font-stretch:normal;font-family:'Roboto Mono';-inkscape-font-specification:'Roboto Mono Bold';fill:#bb0000;fill-opacity:1;stroke:#bb0000;stroke-width:0.299099;stroke-opacity:1"
         id="path869" />
      <path
         d="m 98.318712,142.95764 v -1.29688 h -3.493394 v -2.14394 h 4.065891 v -1.33777 h -5.713278 v 8.50566 h 5.730803 v -1.32609 h -4.083416 v -2.40098 z"
         style="font-style:normal;font-variant:normal;font-weight:bold;font-stretch:normal;font-family:'Roboto Mono';-inkscape-font-specification:'Roboto Mono Bold';fill:#bb0000;fill-opacity:1;stroke:#bb0000;stroke-width:0.299099;stroke-opacity:1"
         id="path871" />
      <path
         d="m 106.17009,144.02085 h -1.64155 q -0.0234,0.38556 -0.12852,0.66012 -0.10515,0.27457 -0.28624,0.44982 -0.1811,0.17525 -0.43814,0.25704 -0.25704,0.0818 -0.57834,0.0818 -0.23951,0 -0.43813,-0.0526 -0.19278,-0.0584 -0.35051,-0.17526 -0.14604,-0.10515 -0.26288,-0.26288 -0.11099,-0.15773 -0.19278,-0.36219 -0.11684,-0.29793 -0.17525,-0.69517 -0.0526,-0.40309 -0.0526,-0.91132 v -1.15668 q 0,-0.37387 0.035,-0.69517 0.035,-0.32714 0.111,-0.59587 0.0993,-0.34466 0.26288,-0.6017 0.16941,-0.26288 0.40892,-0.40308 0.14021,-0.0818 0.30378,-0.12268 0.16941,-0.0409 0.36219,-0.0409 0.36219,0 0.61923,0.0993 0.26288,0.0935 0.43813,0.2804 0.16941,0.19278 0.25704,0.47903 0.0935,0.28625 0.11684,0.66596 h 1.6357 q -0.0584,-0.66596 -0.28041,-1.19756 -0.22198,-0.53161 -0.60754,-0.89964 -0.38556,-0.36803 -0.93469,-0.56666 -0.54329,-0.19862 -1.2443,-0.19862 -0.47319,0 -0.88796,0.12268 -0.40892,0.11684 -0.75359,0.33883 -0.38556,0.26288 -0.68933,0.64259 -0.30377,0.37972 -0.49071,0.86459 -0.16357,0.39724 -0.24536,0.86459 -0.08178,0.4615 -0.08178,0.97558 v 1.14499 q 0,0.54913 0.08763,1.03984 0.0935,0.49071 0.26288,0.89963 0.17525,0.40893 0.42645,0.74775 0.25704,0.33883 0.58418,0.57834 0.35635,0.25704 0.80032,0.39724 0.44982,0.13437 0.97558,0.13437 0.66597,0 1.2151,-0.19278 0.54913,-0.19863 0.94637,-0.56082 0.39724,-0.36219 0.63091,-0.87627 0.23952,-0.51407 0.28041,-1.15667 z"
         style="font-style:normal;font-variant:normal;font-weight:bold;font-stretch:normal;font-family:'Roboto Mono';-inkscape-font-specification:'Roboto Mono Bold';fill:#bb0000;fill-opacity:1;stroke:#bb0000;stroke-width:0.299099;stroke-opacity:1"
         id="path873" />
      <path
         d="m 113.11014,138.17905 h -1.62986 l -0.006,5.63734 q -0.006,0.41476 -0.0876,0.73022 -0.0818,0.31546 -0.24535,0.52576 -0.15189,0.20446 -0.38556,0.30962 -0.22783,0.0993 -0.52576,0.0993 -0.27457,0 -0.48487,-0.0935 -0.21031,-0.0993 -0.35635,-0.29209 -0.15773,-0.21031 -0.23951,-0.5316 -0.076,-0.3213 -0.0818,-0.74775 l -0.006,-5.63734 h -1.64155 l -0.006,5.63734 q 0,0.71269 0.19862,1.27351 0.20447,0.55497 0.5725,0.93468 0.36803,0.37972 0.88211,0.57834 0.51992,0.19862 1.16252,0.19862 0.68349,0 1.21509,-0.19862 0.53745,-0.19862 0.91132,-0.58418 0.36804,-0.37971 0.56081,-0.93468 0.19863,-0.55498 0.19863,-1.26767 z"
         style="font-style:normal;font-variant:normal;font-weight:bold;font-stretch:normal;font-family:'Roboto Mono';-inkscape-font-specification:'Roboto Mono Bold';fill:#bb0000;fill-opacity:1;stroke:#bb0000;stroke-width:0.299099;stroke-opacity:1"
         id="path875" />
      <path
         d="m 117.50901,143.50677 1.60066,3.17794 h 1.75838 v -0.076 l -1.82849,-3.51092 q 0.35051,-0.15772 0.63092,-0.37387 0.28625,-0.21615 0.49071,-0.50824 0.19862,-0.28624 0.30377,-0.64844 0.111,-0.36803 0.111,-0.82369 0,-0.63091 -0.22199,-1.10994 -0.21615,-0.47903 -0.61923,-0.80033 -0.40893,-0.3213 -0.98142,-0.48487 -0.5725,-0.16941 -1.27936,-0.16941 h -2.85079 v 8.50566 h 1.64154 v -3.17794 z m -1.2443,-1.33193 v -2.66386 h 1.20925 q 0.33883,0 0.60171,0.0818 0.26288,0.0818 0.44397,0.23367 0.20447,0.16941 0.30378,0.43229 0.10515,0.25704 0.10515,0.59586 0,0.28041 -0.0818,0.50824 -0.0759,0.22783 -0.22783,0.3914 -0.1811,0.20446 -0.47319,0.31546 -0.28625,0.10515 -0.66596,0.10515 z"
         style="font-style:normal;font-variant:normal;font-weight:bold;font-stretch:normal;font-family:'Roboto Mono';-inkscape-font-specification:'Roboto Mono Bold';fill:#bb0000;fill-opacity:1;stroke:#bb0000;stroke-width:0.299099;stroke-opacity:1"
         id="path877" />
      <path
         d="m 122.16493,138.17905 v 1.32609 h 1.61818 v 5.85932 h -1.61818 v 1.32025 h 4.91879 v -1.32025 h -1.65907 v -5.85932 h 1.65907 v -1.32609 z"
         style="font-style:normal;font-variant:normal;font-weight:bold;font-stretch:normal;font-family:'Roboto Mono';-inkscape-font-specification:'Roboto Mono Bold';fill:#bb0000;fill-opacity:1;stroke:#bb0000;stroke-width:0.299099;stroke-opacity:1"
         id="path879" />
      <path
         d="m 135.23303,139.51682 v -1.33777 h -6.85827 v 1.33777 h 2.58791 v 7.16789 h 1.64739 v -7.16789 z"
         style="font-style:normal;font-variant:normal;font-weight:bold;font-stretch:normal;font-family:'Roboto Mono';-inkscape-font-specification:'Roboto Mono Bold';fill:#bb0000;fill-opacity:1;stroke:#bb0000;stroke-width:0.299099;stroke-opacity:1"
         id="path881" />
      <path
         d="m 139.06524,142.0989 -1.67659,-3.91985 h -1.79928 l 2.63465,5.49129 0.006,3.01437 h 1.6357 l 0.006,-2.94427 2.67554,-5.56139 h -1.80511 z"
         style="font-style:normal;font-variant:normal;font-weight:bold;font-stretch:normal;font-family:'Roboto Mono';-inkscape-font-specification:'Roboto Mono Bold';fill:#bb0000;fill-opacity:1;stroke:#bb0000;stroke-width:0.299099;stroke-opacity:1"
         id="path883" />
    </g>
    <g
       id="g1579"
       transform="translate(824.22952,23.08717)"
       style="fill:#000000;fill-opacity:1">
      <g
         aria-label="CLUB"
         id="text1565"
         style="font-style:normal;font-variant:normal;font-weight:500;font-stretch:normal;font-size:10.1167px;line-height:1.25;font-family:'Roboto Mono';-inkscape-font-specification:'Roboto Mono Medium';letter-spacing:0px;word-spacing:0px;fill:#000000;fill-opacity:1;stroke:none;stroke-width:0.252918">
        <path
           d="m -769.24006,131.98305 h -1.19049 q -0.0296,0.32602 -0.12844,0.57795 -0.0988,0.25193 -0.26181,0.41989 -0.16795,0.17289 -0.40506,0.26181 -0.23711,0.0889 -0.54338,0.0889 -0.25687,0 -0.4594,-0.0692 -0.19759,-0.0741 -0.35072,-0.21241 -0.1482,-0.12843 -0.25687,-0.30626 -0.10374,-0.17784 -0.17289,-0.39519 -0.0889,-0.26181 -0.13338,-0.57795 -0.0395,-0.31615 -0.0395,-0.67676 v -0.99289 q 0,-0.29145 0.0296,-0.56808 0.0346,-0.28157 0.0988,-0.52856 0.084,-0.28157 0.21241,-0.5088 0.13337,-0.23217 0.33096,-0.37542 0.14326,-0.11856 0.32603,-0.18277 0.18771,-0.0642 0.41988,-0.0642 0.33097,0 0.56808,0.0988 0.23711,0.0939 0.40012,0.27663 0.15808,0.18277 0.24699,0.44458 0.0939,0.25687 0.1235,0.57796 h 1.18555 q -0.0543,-0.53844 -0.24205,-0.97808 -0.18277,-0.43964 -0.50386,-0.75085 -0.31615,-0.30627 -0.76567,-0.47422 -0.44458,-0.16795 -1.01266,-0.16795 -0.41988,0 -0.77554,0.11361 -0.35073,0.11362 -0.64218,0.31615 -0.30626,0.22229 -0.54338,0.53844 -0.23217,0.31121 -0.38036,0.69651 -0.13831,0.34578 -0.20747,0.73603 -0.0692,0.39024 -0.0692,0.81012 v 0.98302 q 0,0.43965 0.0692,0.84471 0.0741,0.40506 0.21735,0.75085 0.14325,0.35072 0.35073,0.64711 0.21241,0.29145 0.49398,0.49892 0.29144,0.22229 0.66193,0.34579 0.37542,0.11855 0.82,0.11855 0.54338,0 0.98796,-0.16301 0.44952,-0.16796 0.77555,-0.47422 0.32109,-0.30133 0.51868,-0.72615 0.19759,-0.42976 0.24699,-0.95338 z"
           style="font-style:normal;font-variant:normal;font-weight:500;font-stretch:normal;font-family:'Roboto Mono';-inkscape-font-specification:'Roboto Mono Medium';fill:#000000;fill-opacity:1;stroke-width:0.252918"
           id="path886" />
        <path
           d="m -766.73065,133.218 v -6.21427 h -1.19049 v 7.19235 h 4.62365 V 133.218 Z"
           style="font-style:normal;font-variant:normal;font-weight:500;font-stretch:normal;font-family:'Roboto Mono';-inkscape-font-specification:'Roboto Mono Medium';fill:#000000;fill-opacity:1;stroke-width:0.252918"
           id="path888" />
        <path
           d="m -757.27588,127.00373 h -1.17073 l -0.01,4.81136 q -0.01,0.33591 -0.0889,0.61748 -0.079,0.27663 -0.23218,0.47916 -0.15313,0.19759 -0.38036,0.30627 -0.22229,0.10373 -0.51374,0.10373 -0.28651,0 -0.50386,-0.10373 -0.21241,-0.10868 -0.3606,-0.29639 -0.15314,-0.19759 -0.23217,-0.47916 -0.079,-0.28651 -0.084,-0.62736 l -0.01,-4.81136 h -1.17073 l -0.01,4.81136 q 0.005,0.5582 0.17289,1.0176 0.1729,0.4594 0.4841,0.78543 0.30627,0.32603 0.74097,0.50386 0.4347,0.17289 0.97314,0.17289 0.54832,0 0.98796,-0.17783 0.44458,-0.17783 0.76073,-0.50386 0.31121,-0.32603 0.47916,-0.78049 0.17289,-0.4594 0.17289,-1.0176 z"
           style="font-style:normal;font-variant:normal;font-weight:500;font-stretch:normal;font-family:'Roboto Mono';-inkscape-font-specification:'Roboto Mono Medium';fill:#000000;fill-opacity:1;stroke-width:0.252918"
           id="path890" />
        <path
           d="m -755.89274,134.19608 h 2.48966 q 0.5335,0 0.98796,-0.13338 0.4594,-0.13831 0.79037,-0.40506 0.33096,-0.26181 0.51868,-0.65206 0.18771,-0.39024 0.18277,-0.90398 0,-0.29145 -0.084,-0.55325 -0.079,-0.26675 -0.23711,-0.4841 -0.15313,-0.20254 -0.38036,-0.36061 -0.22723,-0.16301 -0.54832,-0.24699 v -0.01 q 0.21735,-0.0889 0.38036,-0.19759 0.16796,-0.11362 0.30133,-0.26181 0.18771,-0.20253 0.28651,-0.46434 0.10374,-0.26675 0.10868,-0.57302 0,-0.50386 -0.19266,-0.8694 -0.18771,-0.37049 -0.52361,-0.6076 -0.33591,-0.23711 -0.79531,-0.35072 -0.4594,-0.11856 -0.98302,-0.11856 h -2.30195 z m 1.19544,-3.25039 h 1.36338 q 0.29145,0.005 0.51868,0.0889 0.22723,0.079 0.3853,0.22723 0.15807,0.14819 0.23711,0.3606 0.079,0.20747 0.079,0.47916 0,0.25687 -0.0988,0.46928 -0.0938,0.20747 -0.27169,0.35073 -0.16301,0.13831 -0.39518,0.21735 -0.23217,0.079 -0.51374,0.079 h -1.3041 z m 0,-0.90398 v -2.05496 h 1.12133 q 0.30627,0.005 0.5582,0.0741 0.25193,0.0642 0.41988,0.21241 0.14819,0.11856 0.22723,0.30627 0.084,0.18277 0.084,0.4347 0,0.23711 -0.0889,0.41988 -0.0889,0.18278 -0.24205,0.31121 -0.16795,0.14325 -0.41494,0.21735 -0.24205,0.0741 -0.5335,0.079 z"
           style="font-style:normal;font-variant:normal;font-weight:500;font-stretch:normal;font-family:'Roboto Mono';-inkscape-font-specification:'Roboto Mono Medium';fill:#000000;fill-opacity:1;stroke-width:0.252918"
           id="path892" />
      </g>
      <g
         aria-label="0HI0"
         id="text1569"
         style="font-style:normal;font-variant:normal;font-weight:500;font-stretch:normal;font-size:10.1167px;line-height:1.25;font-family:'Roboto Mono';-inkscape-font-specification:'Roboto Mono Medium';letter-spacing:0px;word-spacing:0px;fill:#000000;fill-opacity:1;stroke:none;stroke-width:0.252918">
        <path
           d="m -733.60225,131.45449 v -1.70423 q 0,-0.69157 -0.16302,-1.22013 -0.16301,-0.5335 -0.4594,-0.89904 -0.30626,-0.36061 -0.74097,-0.54338 -0.42976,-0.18771 -0.97808,-0.18771 -0.54337,0 -0.97807,0.18771 -0.42977,0.18277 -0.73109,0.54338 -0.30133,0.36554 -0.46435,0.89904 -0.15807,0.52856 -0.15807,1.22013 v 1.70423 q 0,0.69157 0.15807,1.22507 0.16302,0.52856 0.46929,0.88422 0.30132,0.36555 0.73602,0.55326 0.43471,0.18277 0.97808,0.18277 0.54832,0 0.97808,-0.18277 0.43471,-0.18771 0.73109,-0.55326 0.30133,-0.35566 0.4594,-0.88422 0.16302,-0.5335 0.16302,-1.22507 z m -3.4875,-0.41988 q 0,-0.14326 0,-0.24205 0,-0.0988 0,-0.28651 v -0.9682 q 0,-0.44458 0.079,-0.77061 0.079,-0.33097 0.24205,-0.53844 0.13831,-0.18277 0.34578,-0.27663 0.20748,-0.0938 0.47916,-0.0938 0.25193,0 0.44953,0.079 0.20253,0.079 0.34084,0.23711 0.15808,0.17783 0.24205,0.4594 0.0889,0.28156 0.10868,0.66687 z m 2.29701,0.61747 q 0,0.45446 -0.084,0.79037 -0.079,0.3359 -0.24205,0.54338 -0.14325,0.17783 -0.34579,0.27168 -0.20253,0.0889 -0.46928,0.0889 -0.27168,0 -0.47916,-0.0939 -0.20253,-0.0939 -0.34084,-0.28156 -0.13832,-0.1729 -0.22229,-0.43471 -0.079,-0.2618 -0.10374,-0.60265 l 2.28713,-1.72399 q 0,0.14325 0,0.27663 0,0.13337 0,0.25687 z"
           style="font-style:normal;font-variant:normal;font-weight:500;font-stretch:normal;font-family:'Roboto Mono';-inkscape-font-specification:'Roboto Mono Medium';fill:#000000;fill-opacity:1;stroke-width:0.252918"
           id="path895" />
        <path
           d="m -727.5263,134.19608 v -7.19235 h -1.16086 v 3.00834 h -2.4205 v -3.00834 h -1.15591 v 7.19235 h 1.15591 v -3.20593 h 2.4205 v 3.20593 z"
           style="font-style:normal;font-variant:normal;font-weight:500;font-stretch:normal;font-family:'Roboto Mono';-inkscape-font-specification:'Roboto Mono Medium';fill:#000000;fill-opacity:1;stroke-width:0.252918"
           id="path897" />
        <path
           d="m -725.92581,127.00373 v 0.98302 h 1.5017 v 5.23125 h -1.5017 v 0.97808 h 4.23834 V 133.218 h -1.53627 v -5.23125 h 1.53627 v -0.98302 z"
           style="font-style:normal;font-variant:normal;font-weight:500;font-stretch:normal;font-family:'Roboto Mono';-inkscape-font-specification:'Roboto Mono Medium';fill:#000000;fill-opacity:1;stroke-width:0.252918"
           id="path899" />
        <path
           d="m -715.38923,131.45449 v -1.70423 q 0,-0.69157 -0.16301,-1.22013 -0.16302,-0.5335 -0.4594,-0.89904 -0.30627,-0.36061 -0.74097,-0.54338 -0.42976,-0.18771 -0.97808,-0.18771 -0.54338,0 -0.97808,0.18771 -0.42976,0.18277 -0.73109,0.54338 -0.30133,0.36554 -0.46434,0.89904 -0.15807,0.52856 -0.15807,1.22013 v 1.70423 q 0,0.69157 0.15807,1.22507 0.16301,0.52856 0.46928,0.88422 0.30133,0.36555 0.73603,0.55326 0.4347,0.18277 0.97808,0.18277 0.54832,0 0.97808,-0.18277 0.4347,-0.18771 0.73109,-0.55326 0.30132,-0.35566 0.4594,-0.88422 0.16301,-0.5335 0.16301,-1.22507 z m -3.48749,-0.41988 q 0,-0.14326 0,-0.24205 0,-0.0988 0,-0.28651 v -0.9682 q 0,-0.44458 0.079,-0.77061 0.079,-0.33097 0.24205,-0.53844 0.13832,-0.18277 0.34579,-0.27663 0.20747,-0.0938 0.47916,-0.0938 0.25193,0 0.44952,0.079 0.20253,0.079 0.34085,0.23711 0.15807,0.17783 0.24205,0.4594 0.0889,0.28156 0.10867,0.66687 z m 2.297,0.61747 q 0,0.45446 -0.084,0.79037 -0.079,0.3359 -0.24205,0.54338 -0.14325,0.17783 -0.34578,0.27168 -0.20253,0.0889 -0.46928,0.0889 -0.27169,0 -0.47916,-0.0939 -0.20253,-0.0939 -0.34085,-0.28156 -0.13831,-0.1729 -0.22229,-0.43471 -0.079,-0.2618 -0.10373,-0.60265 l 2.28712,-1.72399 q 0,0.14325 0,0.27663 0,0.13337 0,0.25687 z"
           style="font-style:normal;font-variant:normal;font-weight:500;font-stretch:normal;font-family:'Roboto Mono';-inkscape-font-specification:'Roboto Mono Medium';fill:#000000;fill-opacity:1;stroke-width:0.252918"
           id="path901" />
      </g>
      <g
         aria-label="STATE"
         id="text1573"
         style="font-style:normal;font-variant:normal;font-weight:500;font-stretch:normal;font-size:10.1167px;line-height:1.25;font-family:'Roboto Mono';-inkscape-font-specification:'Roboto Mono Medium';letter-spacing:0px;word-spacing:0px;fill:#000000;fill-opacity:1;stroke:none;stroke-width:0.252918">
        <path
           d="m -708.34615,132.34365 q 0,0.23711 -0.10373,0.41988 -0.0988,0.18278 -0.26675,0.30627 -0.1729,0.12844 -0.41001,0.19265 -0.23217,0.0642 -0.50385,0.0642 -0.32109,0 -0.59278,-0.079 -0.26675,-0.079 -0.46434,-0.24205 -0.20253,-0.15807 -0.32109,-0.40012 -0.11361,-0.24699 -0.13831,-0.57795 h -1.18555 q 0.005,0.51867 0.20747,0.9188 0.20747,0.40012 0.5582,0.69651 0.38036,0.31615 0.8941,0.4841 0.51374,0.16301 1.0423,0.16301 0.49891,0 0.94844,-0.12349 0.44952,-0.12844 0.79036,-0.38037 0.33591,-0.24205 0.5335,-0.60759 0.20253,-0.36555 0.20253,-0.84471 0,-0.51868 -0.23217,-0.91386 -0.22723,-0.40012 -0.60759,-0.68663 -0.30627,-0.22723 -0.67181,-0.3853 -0.36061,-0.16302 -0.74097,-0.27169 -0.30133,-0.0889 -0.57796,-0.19266 -0.27169,-0.10373 -0.4841,-0.24205 -0.20747,-0.13831 -0.33097,-0.32108 -0.12349,-0.18771 -0.12843,-0.4347 0,-0.23217 0.0939,-0.41989 0.0938,-0.18771 0.2618,-0.32108 0.16796,-0.12844 0.39519,-0.1976 0.23217,-0.0741 0.50386,-0.0741 0.3112,0 0.54831,0.0938 0.24205,0.0889 0.41001,0.24699 0.16301,0.16302 0.25193,0.39025 0.0938,0.22229 0.11855,0.49398 h 1.17567 q 0,-0.48904 -0.19759,-0.88917 -0.19265,-0.40506 -0.52856,-0.69651 -0.3359,-0.28651 -0.79036,-0.44458 -0.44953,-0.16301 -0.97314,-0.16301 -0.49398,0 -0.9435,0.13831 -0.44459,0.13338 -0.78049,0.39025 -0.33591,0.26181 -0.5335,0.63229 -0.19759,0.36554 -0.19759,0.82495 0,0.42482 0.16795,0.76566 0.17289,0.33591 0.47422,0.60266 0.30133,0.26181 0.72615,0.47422 0.42976,0.20747 0.93856,0.35072 0.33097,0.0939 0.59772,0.21242 0.27169,0.11361 0.46928,0.25687 0.18771,0.15313 0.29145,0.34578 0.10373,0.19265 0.10373,0.44458 z"
           style="font-style:normal;font-variant:normal;font-weight:500;font-stretch:normal;font-family:'Roboto Mono';-inkscape-font-specification:'Roboto Mono Medium';fill:#000000;fill-opacity:1;stroke-width:0.252918"
           id="path904" />
        <path
           d="m -700.92164,127.98675 v -0.98302 h -5.60172 v 0.98302 h 2.20315 v 6.20933 h 1.18061 v -6.20933 z"
           style="font-style:normal;font-variant:normal;font-weight:500;font-stretch:normal;font-family:'Roboto Mono';-inkscape-font-specification:'Roboto Mono Medium';fill:#000000;fill-opacity:1;stroke-width:0.252918"
           id="path906" />
        <path
           d="m -696.461,132.54124 0.4841,1.65484 h 1.23001 l -2.30195,-7.19235 h -1.05217 l -2.34147,7.19235 h 1.23495 l 0.48904,-1.65484 z m -1.95616,-1.01759 0.83977,-2.84533 0.82494,2.84533 z"
           style="font-style:normal;font-variant:normal;font-weight:500;font-stretch:normal;font-family:'Roboto Mono';-inkscape-font-specification:'Roboto Mono Medium';fill:#000000;fill-opacity:1;stroke-width:0.252918"
           id="path908" />
        <path
           d="m -688.77962,127.98675 v -0.98302 h -5.60173 v 0.98302 h 2.20315 v 6.20933 h 1.18061 v -6.20933 z"
           style="font-style:normal;font-variant:normal;font-weight:500;font-stretch:normal;font-family:'Roboto Mono';-inkscape-font-specification:'Roboto Mono Medium';fill:#000000;fill-opacity:1;stroke-width:0.252918"
           id="path910" />
        <path
           d="m -683.58296,130.97039 v -0.95832 h -2.97375 v -2.02532 h 3.44798 v -0.98302 h -4.63847 v 7.19235 h 4.66316 V 133.218 h -3.47267 v -2.24761 z"
           style="font-style:normal;font-variant:normal;font-weight:500;font-stretch:normal;font-family:'Roboto Mono';-inkscape-font-specification:'Roboto Mono Medium';fill:#000000;fill-opacity:1;stroke-width:0.252918"
           id="path912" />
      </g>
      <g
         aria-label="@"
         id="text1577"
         style="font-style:normal;font-variant:normal;font-weight:500;font-stretch:normal;font-size:10.1167px;line-height:1.25;font-family:'Roboto Mono';-inkscape-font-specification:'Roboto Mono Medium';letter-spacing:0px;word-spacing:0px;fill:#000000;fill-opacity:1;stroke:none;stroke-width:0.252918">
        <path
           d="m -742.0685,130.19978 q 0.0198,-0.71133 -0.14326,-1.29423 -0.15807,-0.58289 -0.47422,-0.99783 -0.32602,-0.41495 -0.7953,-0.64218 -0.46928,-0.22723 -1.06206,-0.22723 -0.64711,0 -1.18555,0.29145 -0.53844,0.28651 -0.93362,0.79037 -0.40013,0.51374 -0.63724,1.21519 -0.23217,0.69651 -0.26181,1.477 -0.0247,0.77554 0.12844,1.40784 0.15313,0.63229 0.48904,1.07687 0.33591,0.44952 0.85458,0.69651 0.52362,0.24205 1.24977,0.24205 0.16302,0 0.34085,-0.0247 0.18277,-0.0198 0.3606,-0.0692 0.17784,-0.0445 0.34085,-0.11362 0.16301,-0.0692 0.29145,-0.16301 l -0.15808,-0.62735 q -0.11361,0.0642 -0.25193,0.11855 -0.13831,0.0494 -0.2865,0.0889 -0.15808,0.0395 -0.31615,0.0642 -0.15807,0.0198 -0.30627,0.0198 -0.51374,0 -0.90398,-0.17289 -0.38531,-0.17783 -0.63723,-0.52362 -0.25193,-0.34084 -0.37049,-0.8447 -0.11855,-0.5088 -0.0939,-1.17567 0.0198,-0.6817 0.19266,-1.24977 0.17289,-0.57302 0.47916,-0.98302 0.29144,-0.40012 0.68663,-0.61748 0.40012,-0.22229 0.8941,-0.22229 0.4594,0 0.81013,0.15808 0.35566,0.15807 0.59277,0.46928 0.23711,0.3112 0.35073,0.77555 0.11361,0.46434 0.0938,1.07687 0,0.38036 -0.0444,0.70639 -0.0445,0.32603 -0.13338,0.56314 -0.084,0.23711 -0.20747,0.37542 -0.11855,0.13338 -0.26675,0.13338 -0.0642,0 -0.12349,-0.0148 -0.0543,-0.0148 -0.0939,-0.0692 -0.0445,-0.0543 -0.0642,-0.15313 -0.0198,-0.0988 -0.01,-0.26675 l 0.21735,-2.55388 q -0.14325,-0.16301 -0.38036,-0.28156 -0.23217,-0.1235 -0.59278,-0.1235 -0.36554,0 -0.66193,0.16301 -0.29639,0.15808 -0.51868,0.45446 -0.22229,0.29639 -0.3606,0.72121 -0.13832,0.41989 -0.18771,0.94351 -0.0395,0.41 0.01,0.75084 0.0494,0.33591 0.17783,0.57302 0.12349,0.24699 0.32603,0.38036 0.20747,0.12844 0.47916,0.12844 0.15807,0 0.29638,-0.0445 0.14326,-0.0494 0.26675,-0.13831 0.0939,-0.0692 0.17783,-0.15314 0.084,-0.0889 0.15314,-0.19265 0.0445,0.10868 0.10867,0.19759 0.0642,0.0889 0.14326,0.15808 0.10373,0.0889 0.23711,0.13337 0.13337,0.0445 0.29145,0.0445 0.37542,0 0.63723,-0.21735 0.26675,-0.22229 0.4347,-0.57302 0.16795,-0.35072 0.25193,-0.79037 0.084,-0.43964 0.0988,-0.87434 z m -3.3393,0.61748 q 0.0346,-0.37543 0.11361,-0.66688 0.079,-0.29638 0.20253,-0.49892 0.1235,-0.20747 0.30133,-0.3112 0.17783,-0.10868 0.41494,-0.10868 0.0642,0 0.11362,0.01 0.0543,0.01 0.0938,0.0247 l -0.18771,2.18339 -0.005,0.0593 q -0.0445,0.0889 -0.0988,0.15807 -0.0543,0.0642 -0.10868,0.11362 -0.0889,0.079 -0.19265,0.11361 -0.0988,0.0296 -0.20747,0.0296 -0.11856,0 -0.21241,-0.0692 -0.0889,-0.0741 -0.14326,-0.22229 -0.0543,-0.13831 -0.079,-0.34578 -0.0198,-0.20748 -0.005,-0.46928 z"
           style="font-style:normal;font-variant:normal;font-weight:500;font-stretch:normal;font-family:'Roboto Mono';-inkscape-font-specification:'Roboto Mono Medium';fill:#000000;fill-opacity:1;stroke-width:0.252918"
           id="path915" />
      </g>
    </g>
    <circle
       style="fill:none;fill-opacity:1;stroke:#bb0000;stroke-width:3.175;stroke-miterlimit:4;stroke-dasharray:none;stroke-opacity:1"
       id="circle1527"
       cx="95.085716"
       cy="124.34286"
       r="66.145836" />
  </g>
</svg>
